<svg xmlns="http://www.w3.org/2000/svg" xmlns:xlink="http://www.w3.org/1999/xlink" version="1.1" width="256" height="256" viewBox="0 0 256 256" xml:space="preserve">

<defs>
</defs>
<g style="stroke: none; stroke-width: 0; stroke-dasharray: none; stroke-linecap: butt; stroke-linejoin: miter; stroke-miterlimit: 10; fill: none; fill-rule: nonzero; opacity: 1;" transform="translate(1.4065934065934016 1.4065934065934016) scale(2.81 2.81)" >
	<path d="M 0 68.143 l 0 -13.689 C 0 48.421 4.891 43.53 10.924 43.53 h 8.152 C 25.109 43.53 30 48.421 30 54.454 v 13.689" style="stroke: none; stroke-width: 1; stroke-dasharray: none; stroke-linecap: butt; stroke-linejoin: miter; stroke-miterlimit: 10; fill: rgb(128,170,255); fill-rule: nonzero; opacity: 1;" transform=" matrix(1 0 0 1 0 0) " stroke-linecap="round" />
	<path d="M 15 43.53 L 15 43.53 c -4.592 0 -8.315 -3.723 -8.315 -8.315 v -5.043 c 0 -4.592 3.723 -8.315 8.315 -8.315 h 0 c 4.592 0 8.315 3.723 8.315 8.315 v 5.043 C 23.315 39.807 19.592 43.53 15 43.53 z" style="stroke: none; stroke-width: 1; stroke-dasharray: none; stroke-linecap: butt; stroke-linejoin: miter; stroke-miterlimit: 10; fill: rgb(254,229,198); fill-rule: nonzero; opacity: 1;" transform=" matrix(1 0 0 1 0 0) " stroke-linecap="round" />
	<path d="M 30 68.143 V 54.454 c 0 -6.033 4.891 -10.924 10.924 -10.924 h 8.152 C 55.109 43.53 60 48.421 60 54.454 v 13.689" style="stroke: none; stroke-width: 1; stroke-dasharray: none; stroke-linecap: butt; stroke-linejoin: miter; stroke-miterlimit: 10; fill: rgb(254,79,96); fill-rule: nonzero; opacity: 1;" transform=" matrix(1 0 0 1 0 0) " stroke-linecap="round" />
	<path d="M 45 43.53 L 45 43.53 c -4.592 0 -8.315 -3.723 -8.315 -8.315 v -5.043 c 0 -4.592 3.723 -8.315 8.315 -8.315 h 0 c 4.592 0 8.315 3.723 8.315 8.315 v 5.043 C 53.315 39.807 49.592 43.53 45 43.53 z" style="stroke: none; stroke-width: 1; stroke-dasharray: none; stroke-linecap: butt; stroke-linejoin: miter; stroke-miterlimit: 10; fill: rgb(254,229,198); fill-rule: nonzero; opacity: 1;" transform=" matrix(1 0 0 1 0 0) " stroke-linecap="round" />
	<path d="M 60 68.143 V 54.454 c 0 -6.033 4.891 -10.924 10.924 -10.924 h 8.152 C 85.109 43.53 90 48.421 90 54.454 v 13.689" style="stroke: none; stroke-width: 1; stroke-dasharray: none; stroke-linecap: butt; stroke-linejoin: miter; stroke-miterlimit: 10; fill: rgb(255,231,115); fill-rule: nonzero; opacity: 1;" transform=" matrix(1 0 0 1 0 0) " stroke-linecap="round" />
	<path d="M 75 43.53 L 75 43.53 c -4.592 0 -8.315 -3.723 -8.315 -8.315 v -5.043 c 0 -4.592 3.723 -8.315 8.315 -8.315 h 0 c 4.592 0 8.315 3.723 8.315 8.315 v 5.043 C 83.315 39.807 79.592 43.53 75 43.53 z" style="stroke: none; stroke-width: 1; stroke-dasharray: none; stroke-linecap: butt; stroke-linejoin: miter; stroke-miterlimit: 10; fill: rgb(254,229,198); fill-rule: nonzero; opacity: 1;" transform=" matrix(1 0 0 1 0 0) " stroke-linecap="round" />
</g>
</svg>